<?xml version="1.0" standalone="no"?>
<!DOCTYPE svg PUBLIC "-//W3C//DTD SVG 20010904//EN"
 "http://www.w3.org/TR/2001/REC-SVG-20010904/DTD/svg10.dtd">
<svg version="1.0" xmlns="http://www.w3.org/2000/svg"
 width="2000.000000pt" height="1414.000000pt" viewBox="0 0 2000.000000 1414.000000"
 preserveAspectRatio="xMidYMid meet">

<g transform="translate(0.000000,1414.000000) scale(0.100000,-0.100000)"
fill="#000000" stroke="none">
<path d="M9740 12389 c-113 -4 -299 -19 -415 -34 -1719 -215 -3232 -1224
-4099 -2734 -403 -701 -644 -1487 -707 -2304 -17 -231 -7 -769 20 -1002 96
-826 354 -1583 774 -2270 159 -261 413 -603 585 -790 359 -389 666 -657 1035
-903 762 -510 1554 -800 2477 -908 213 -25 818 -30 1050 -10 934 84 1776 376
2549 883 1178 772 2024 1984 2339 3348 134 575 171 1130 117 1725 -68 746
-275 1447 -616 2083 -312 581 -691 1067 -1170 1502 -719 652 -1600 1103 -2550
1305 -439 93 -888 128 -1389 109z m525 -79 c868 -44 1668 -279 2425 -712 920
-527 1670 -1323 2146 -2278 310 -620 487 -1247 550 -1950 24 -263 24 -770 0
-985 -35 -319 -72 -530 -143 -810 -185 -733 -511 -1393 -999 -2021 -237 -305
-587 -654 -904 -900 -189 -147 -218 -167 -385 -276 -669 -436 -1415 -719
-2185 -827 -451 -64 -973 -71 -1400 -20 -857 102 -1659 397 -2370 872 -948
634 -1666 1537 -2070 2607 -310 820 -414 1782 -290 2670 141 1000 581 1967
1253 2750 132 153 472 490 620 613 1070 891 2384 1335 3752 1267z"/>
<path d="M11153 11750 c-40 -24 -53 -48 -53 -97 0 -49 14 -67 65 -84 62 -19
26 -22 -65 -5 -110 21 -130 21 -130 -4 0 -10 8 -23 17 -29 16 -8 15 -18 -7
-138 -20 -106 -29 -132 -51 -155 -62 -63 -182 -57 -251 12 -24 24 -38 47 -38
63 0 24 2 25 67 25 206 1 305 199 141 283 -120 61 -268 11 -268 -92 0 -38 40
-91 89 -118 37 -20 41 -25 26 -33 -15 -9 -58 -4 -159 18 l-29 7 6 -58 c7 -72
46 -138 106 -180 37 -26 53 -30 122 -34 70 -3 86 0 133 23 29 14 56 26 59 26
11 0 -5 -64 -21 -82 -8 -10 -21 -18 -29 -18 -7 0 -13 -6 -13 -14 0 -10 32 -20
108 -34 114 -22 142 -17 104 18 -12 12 -22 25 -22 31 0 8 17 104 63 349 l13
65 52 -3 c41 -3 53 0 58 13 4 9 2 21 -5 28 -6 6 -11 37 -11 69 0 50 4 63 26
85 21 21 32 24 61 20 68 -11 103 -71 103 -177 0 -52 0 -52 -27 -45 -48 13 -58
11 -61 -11 -2 -16 4 -24 27 -32 17 -6 31 -13 31 -14 0 -2 -23 -76 -51 -163
-28 -88 -55 -176 -61 -195 -12 -43 -35 -70 -60 -70 -10 0 -18 -6 -18 -13 0
-14 207 -84 217 -73 4 4 0 19 -9 34 -19 32 -17 42 64 292 48 149 42 143 128
129 19 -3 26 1 28 18 3 17 -5 24 -47 38 -52 17 -58 23 -42 41 5 5 16 32 25 60
9 29 26 60 37 70 18 16 25 16 70 5 28 -7 53 -11 56 -8 15 16 -13 38 -73 56
-69 22 -115 25 -149 12 -15 -6 -29 0 -59 26 -87 79 -221 108 -293 63z m-357
-175 c7 -30 -2 -99 -17 -126 -27 -52 -76 2 -64 71 14 74 67 110 81 55z"/>
<path d="M8514 11710 c-116 -17 -263 -100 -299 -171 -33 -64 -15 -133 39 -148
32 -9 31 -9 -26 -30 -19 -7 -28 -18 -28 -31 0 -19 5 -21 41 -18 l40 3 33 -85
c18 -47 50 -138 72 -202 34 -105 37 -119 24 -142 -7 -14 -11 -29 -7 -32 7 -7
183 53 204 69 18 13 6 27 -21 27 -26 0 -36 18 -91 155 -45 113 -87 246 -81
260 2 6 22 17 45 25 29 9 41 19 41 32 0 28 -20 30 -84 8 -65 -22 -79 -25 -56
-10 12 7 11 13 -10 35 -50 53 -24 140 54 179 85 42 191 26 273 -40 23 -19 48
-34 56 -34 22 0 107 38 106 47 -1 16 -62 57 -117 78 -67 26 -137 35 -208 25z"/>
<path d="M9605 11676 l-310 -21 0 -25 0 -25 95 5 c183 9 205 7 205 -15 0 -17
-9 -21 -55 -28 -30 -5 -70 -10 -89 -13 -36 -6 -81 -44 -81 -69 0 -9 13 -30 29
-46 l29 -29 -29 -21 c-86 -61 -69 -153 37 -205 46 -23 64 -26 126 -22 87 4
145 30 217 94 27 24 52 44 55 44 3 0 6 -25 6 -55 0 -44 -4 -56 -20 -65 -11 -6
-20 -18 -20 -27 0 -13 8 -15 53 -9 28 3 75 6 102 6 28 0 57 5 65 10 13 8 10
13 -13 32 -27 22 -28 27 -38 158 -5 74 -10 171 -12 215 l-2 80 50 5 c42 4 50
8 50 25 0 18 -7 20 -70 21 -38 1 -209 -8 -380 -20z m210 -58 c2 -7 6 -67 10
-133 l6 -120 -36 -42 c-71 -83 -216 -126 -282 -84 -88 55 -29 151 94 151 56 0
78 11 70 34 -5 13 -16 15 -61 10 -66 -8 -109 13 -104 49 4 31 44 47 120 47 92
0 98 4 98 56 l0 44 40 0 c24 0 42 -5 45 -12z"/>
<path d="M10146 11682 c-3 -3 -6 -13 -6 -23 0 -18 19 -29 52 -29 21 0 21 -17
-1 -329 -8 -104 -15 -121 -54 -134 -6 -2 -8 -8 -4 -14 4 -6 54 -14 113 -18
121 -8 142 0 100 37 l-26 23 11 190 c14 252 8 233 72 237 44 3 52 6 52 23 0
17 -9 21 -55 26 -90 11 -248 18 -254 11z"/>
<path d="M9020 11595 c-74 -18 -206 -50 -292 -71 -148 -35 -158 -39 -158 -61
0 -12 6 -23 13 -23 6 0 92 19 190 42 109 26 181 38 186 32 5 -5 12 -26 15 -47
l7 -38 -38 8 c-100 21 -189 -8 -247 -80 -40 -50 -48 -144 -17 -193 36 -58 86
-88 156 -92 76 -5 125 10 172 51 28 25 36 28 44 16 14 -22 11 -37 -11 -59 -46
-46 -25 -49 110 -17 70 17 96 28 98 40 2 11 -3 17 -16 17 -11 0 -24 6 -30 13
-11 13 -102 376 -102 408 0 14 12 22 46 30 37 10 45 15 42 33 -2 11 -10 22
-18 23 -8 1 -76 -13 -150 -32z m-34 -217 c13 -10 44 -124 44 -162 0 -46 -83
-87 -145 -72 -14 4 -39 19 -56 34 -25 23 -33 38 -36 78 -5 46 -2 54 27 87 18
20 46 41 64 46 33 9 84 4 102 -11z"/>
<path d="M11987 11253 c-19 -18 -2 -42 51 -72 92 -52 119 -119 65 -161 -36
-28 -88 -22 -144 15 -22 14 -44 23 -49 20 -14 -9 -30 -74 -30 -124 0 -147 100
-240 245 -229 36 3 65 4 65 2 0 -2 -8 -19 -17 -39 -11 -23 -26 -38 -43 -41
-69 -15 -67 -18 56 -84 68 -36 100 -48 107 -41 8 8 7 15 -1 23 -23 23 -12 56
59 190 67 126 118 218 125 227 2 2 24 -7 49 -20 39 -21 47 -22 55 -9 15 23 13
26 -27 50 -48 28 -552 300 -556 300 -2 0 -7 -3 -10 -7z m308 -211 c30 -17 50
-34 49 -44 -1 -9 -27 -64 -58 -122 -62 -115 -86 -137 -155 -138 -42 0 -86 19
-116 52 -16 17 -20 36 -20 86 0 81 9 90 69 70 118 -40 214 9 177 90 -19 43
-15 44 54 6z"/>
<path d="M7535 11031 c-168 -100 -281 -174 -283 -184 -9 -47 34 -27 355 165
18 11 37 17 42 14 5 -3 31 -43 57 -87 37 -64 45 -85 37 -98 -13 -19 -21 -18
-93 8 -65 24 -159 27 -199 6 -38 -19 -77 -66 -91 -111 -17 -50 -1 -61 35 -24
24 25 36 30 74 30 52 -1 149 -37 164 -61 8 -13 -2 -39 -41 -113 -29 -53 -52
-101 -52 -107 0 -6 10 -9 21 -7 16 2 44 45 113 170 50 92 96 167 103 168 12 0
86 -124 86 -144 0 -6 -3 -21 -7 -33 -11 -34 8 -29 107 28 88 51 104 74 53 74
-15 1 -32 7 -37 15 -5 8 -55 93 -111 189 l-102 174 24 16 c51 34 61 46 55 64
-4 9 -12 17 -19 16 -6 -1 -137 -76 -291 -168z"/>
<path d="M12804 10969 c-42 -12 -67 -42 -73 -90 l-6 -41 -27 21 c-33 26 -45
26 -53 1 -5 -15 0 -26 19 -41 l26 -20 -62 -92 c-85 -127 -168 -240 -187 -255
-9 -7 -23 -11 -32 -9 -22 6 -40 -6 -31 -19 11 -16 168 -124 181 -124 7 0 9 13
6 38 -5 32 0 45 37 97 24 34 78 111 121 173 49 70 83 110 90 105 7 -3 25 -15
40 -26 30 -20 57 -17 57 7 0 8 -20 29 -45 47 -31 22 -42 36 -35 43 5 5 10 18
10 27 0 27 47 76 79 82 71 14 160 -44 201 -131 17 -36 22 -65 22 -124 l0 -78
41 -30 c60 -44 67 -41 67 33 0 111 -43 200 -142 293 -51 49 -97 76 -164 97
-71 23 -105 27 -140 16z"/>
<path d="M6960 10632 c-107 -86 -195 -164 -195 -172 0 -41 47 -15 220 125 223
181 212 170 195 189 -7 9 -15 16 -19 16 -3 0 -94 -71 -201 -158z"/>
<path d="M9680 10650 c-493 -47 -935 -172 -1363 -386 -688 -345 -1267 -904
-1630 -1575 -51 -93 -57 -119 -29 -119 28 0 38 11 77 89 135 269 380 597 644
862 282 281 569 491 926 675 950 490 2069 544 3065 146 289 -115 599 -289 845
-475 405 -307 747 -696 1008 -1150 79 -135 104 -164 128 -140 18 18 -182 351
-330 551 -426 575 -998 1016 -1656 1275 -276 108 -587 188 -885 227 -186 25
-631 35 -800 20z"/>
<path d="M12977 10643 c-17 -17 4 -41 166 -189 178 -164 188 -174 184 -186 -6
-18 -90 -108 -100 -107 -7 0 -24 26 -39 57 -35 73 -130 179 -183 203 -164 75
-321 -84 -240 -241 38 -73 132 -127 206 -117 78 10 127 60 144 145 5 26 10 31
20 22 21 -18 57 -109 48 -124 -4 -8 -38 -46 -76 -86 -62 -66 -69 -71 -98 -65
-23 5 -30 4 -27 -7 4 -18 142 -148 156 -148 7 0 11 15 10 36 -1 30 7 43 54 92
30 31 75 80 99 107 25 28 66 72 90 99 l45 49 37 -33 c37 -32 67 -35 67 -6 0 7
-46 56 -102 107 -104 95 -183 168 -293 270 -138 129 -152 139 -168 122z m59
-298 c34 -53 -18 -155 -99 -194 -81 -39 -133 -2 -108 79 32 108 164 181 207
115z"/>
<path d="M11780 10573 c0 -84 116 -218 247 -284 56 -29 78 -34 134 -34 58 0
71 4 93 24 33 31 33 62 1 116 -28 50 -75 87 -150 121 -54 25 -115 29 -121 9
-5 -17 85 -65 121 -65 63 0 84 -78 32 -115 -60 -42 -188 11 -233 97 -8 15 -14
43 -14 62 0 35 -26 63 -87 95 -22 11 -23 10 -23 -26z"/>
<path d="M7209 10581 c-76 -30 -182 -104 -214 -151 -26 -37 -30 -52 -30 -109
0 -53 5 -72 23 -99 67 -93 213 -87 300 12 30 34 52 90 52 131 -1 54 -76 155
-116 155 -29 0 -12 18 36 39 28 12 50 26 50 31 0 15 -50 11 -101 -9z m-57
-134 c96 -58 141 -198 73 -229 -19 -8 -32 -6 -69 12 -104 50 -158 189 -89 229
27 16 44 13 85 -12z"/>
<path d="M6554 10273 c-65 -71 -153 -164 -195 -208 -42 -44 -91 -97 -109 -118
-31 -36 -32 -39 -16 -55 19 -19 -2 -37 205 186 57 62 107 112 112 112 11 0 69
-50 69 -61 0 -5 -14 -16 -31 -25 -17 -8 -51 -34 -76 -57 -135 -124 -119 -314
33 -387 42 -21 135 -32 149 -19 11 12 44 112 39 120 -3 5 -22 9 -43 9 -55 0
-139 47 -163 90 -35 64 -14 142 54 194 65 49 72 47 186 -60 99 -93 102 -97 96
-130 -5 -25 -3 -34 8 -34 17 0 159 160 152 171 -2 5 -18 6 -33 3 -25 -5 -38 2
-92 51 -86 78 -249 237 -249 243 0 2 13 20 30 38 29 33 31 64 5 64 -7 0 -66
-57 -131 -127z"/>
<path d="M9292 10121 c-46 -12 -72 -39 -72 -74 0 -17 -8 -36 -17 -43 -17 -13
-17 -14 5 -20 21 -6 22 -10 22 -125 0 -73 -4 -119 -10 -119 -5 0 -10 -4 -10
-10 0 -5 20 -10 45 -10 42 0 58 11 35 25 -6 4 -10 55 -10 121 l0 114 38 1
c140 2 186 -1 193 -13 13 -21 -5 -30 -36 -18 -40 15 -80 4 -110 -32 -63 -75 2
-171 105 -154 32 5 40 3 40 -9 0 -8 -4 -15 -10 -15 -5 0 -10 -4 -10 -10 0 -5
23 -10 50 -10 l50 0 -15 24 c-12 18 -15 47 -13 127 3 100 4 103 27 109 47 11
36 30 -18 30 -43 0 -51 3 -51 18 0 62 -134 116 -228 93z m143 -42 c19 -17 35
-40 35 -50 0 -18 -7 -20 -97 -17 l-98 3 -3 32 c-4 40 27 63 85 63 33 0 50 -7
78 -31z m65 -159 c25 -25 27 -95 3 -122 -21 -24 -68 -23 -93 2 -31 31 -27 93
6 119 33 26 58 27 84 1z"/>
<path d="M13600 10045 c-11 -13 -9 -21 9 -45 78 -107 87 -137 50 -184 -34 -43
-96 -30 -152 33 -31 36 -38 37 -73 14 -86 -56 -90 -242 -8 -314 24 -21 99 -59
116 -59 7 0 19 -4 27 -9 11 -7 8 -14 -15 -35 -22 -20 -38 -26 -66 -24 -21 2
-38 -1 -39 -5 -2 -12 120 -167 131 -167 6 0 10 10 10 23 0 13 6 30 13 39 16
21 324 258 335 258 5 0 18 -13 30 -30 23 -31 62 -41 62 -16 0 13 -113 165
-265 356 -29 36 -71 91 -95 123 -23 31 -46 57 -50 57 -4 0 -13 -7 -20 -15z
m233 -334 l17 -30 -72 -59 c-105 -85 -149 -112 -181 -112 -75 0 -147 64 -147
131 0 48 20 97 48 123 21 19 22 18 61 -17 53 -48 75 -58 123 -59 50 -1 78 27
78 75 l0 31 28 -27 c15 -14 35 -39 45 -56z"/>
<path d="M11167 10012 c-27 -30 -21 -70 15 -104 l32 -29 -29 -23 -29 -24 33
-37 c18 -21 38 -51 43 -67 7 -20 17 -28 34 -28 37 0 30 34 -18 86 l-42 45 30
24 c16 13 32 24 35 25 11 0 29 50 29 79 0 59 -94 97 -133 53z m83 -53 c0 -44
-17 -60 -37 -34 -16 23 -17 67 -1 83 19 19 38 -6 38 -49z"/>
<path d="M8536 10001 c-3 -4 14 -11 39 -13 82 -10 121 -56 95 -117 -13 -33
-47 -51 -95 -51 -19 0 -35 -3 -34 -7 0 -5 23 -27 50 -50 32 -28 59 -43 77 -43
30 0 72 25 72 43 0 8 -3 8 -12 -1 -17 -17 -49 -15 -76 4 -32 22 -27 41 13 48
20 4 41 16 48 26 15 26 97 29 97 5 0 -52 65 -91 135 -81 38 6 44 5 39 -8 -3
-9 -10 -16 -15 -16 -5 0 -9 -4 -9 -10 0 -5 23 -10 50 -10 53 0 58 3 36 25 -10
10 -14 43 -15 112 -1 103 3 118 32 124 10 2 18 9 18 14 -1 13 -537 19 -545 6z
m448 -31 c18 -18 -7 -32 -37 -21 -41 16 -85 2 -115 -35 -39 -49 -75 -47 -102
5 -11 22 -24 43 -30 46 -27 17 11 22 137 19 75 -2 141 -8 147 -14z m-14 -50
c25 -25 27 -95 3 -122 -41 -45 -113 -5 -113 63 0 65 68 101 110 59z"/>
<path d="M9725 10000 c-8 -12 -9 -12 42 -15 46 -2 73 -18 73 -44 0 -28 -22
-41 -67 -41 -37 0 -43 -3 -43 -21 0 -35 29 -84 59 -102 33 -19 92 -22 122 -7
15 9 21 7 26 -6 4 -10 2 -19 -5 -22 -30 -10 -7 -22 40 -22 49 0 50 1 35 18
-14 15 -17 40 -17 130 0 82 3 112 13 113 6 1 18 2 24 3 7 0 14 6 15 11 4 14
-308 19 -317 5z m206 -20 c5 0 9 -41 9 -90 0 -89 0 -91 -27 -101 -39 -15 -89
-3 -113 28 -28 36 -26 63 5 63 59 0 104 50 76 84 -13 16 3 28 27 20 8 -2 18
-4 23 -4z"/>
<path d="M10338 9994 c-20 -9 -39 -22 -42 -31 -5 -11 -2 -13 11 -8 57 23 71
25 96 16 14 -6 33 -22 43 -35 37 -58 -19 -114 -102 -101 -24 3 -44 4 -44 1 0
-6 40 -54 74 -88 27 -27 57 -35 90 -22 26 10 18 24 -13 24 -20 0 -34 8 -45 25
-17 25 -17 25 27 44 44 19 77 53 77 79 0 36 -33 81 -71 96 -47 19 -54 19 -101
0z"/>
<path d="M10992 9998 c-6 -6 -12 -17 -12 -24 0 -7 -29 -38 -65 -70 -89 -77
-98 -124 -32 -165 71 -43 177 -4 177 66 0 24 -44 15 -48 -10 -10 -54 -77 -75
-106 -33 -30 43 -21 68 53 138 38 36 71 74 73 85 4 23 -22 31 -40 13z"/>
<path d="M10601 9931 c-57 -53 -34 -145 43 -171 38 -12 77 -1 114 32 34 33 31
101 -7 139 -42 41 -106 41 -150 0z m103 -4 c25 -19 33 -90 12 -122 -47 -71
-126 20 -85 98 21 38 43 46 73 24z"/>
<path d="M5999 9608 c-79 -117 -156 -231 -171 -253 -33 -47 -36 -75 -9 -75 13
0 50 46 121 153 57 83 105 154 107 157 6 7 76 -35 81 -48 2 -6 -15 -20 -37
-31 -67 -35 -121 -123 -121 -198 1 -72 51 -149 113 -172 122 -46 277 73 277
213 0 32 10 33 38 3 14 -15 19 -30 15 -45 -4 -16 -1 -22 10 -22 16 0 127 157
127 179 0 8 -11 10 -35 5 -31 -6 -47 3 -192 101 -209 142 -199 132 -167 177
27 38 27 68 0 68 -8 0 -79 -96 -157 -212z m252 -145 c67 -47 69 -49 69 -92 0
-37 -6 -49 -39 -82 -33 -33 -45 -39 -82 -39 -105 0 -159 89 -112 187 15 31 64
73 86 73 5 0 40 -21 78 -47z"/>
<path d="M9115 9750 c-4 -7 -3 -16 3 -22 14 -14 45 -2 40 15 -6 16 -34 21 -43
7z"/>
<path d="M9647 9753 c-14 -13 -6 -33 13 -33 13 0 20 7 20 20 0 19 -20 27 -33
13z"/>
<path d="M10077 9754 c-14 -15 -6 -34 14 -34 14 0 19 5 17 17 -3 18 -20 27
-31 17z"/>
<path d="M9922 9684 c-12 -8 -22 -19 -22 -25 0 -15 36 -11 50 6 17 20 27 19
35 -4 8 -28 -3 -48 -36 -62 -40 -16 -103 2 -125 36 -17 27 -54 34 -54 12 0
-34 84 -76 153 -77 44 0 92 22 107 49 14 28 13 38 -10 61 -24 24 -67 26 -98 4z"/>
<path d="M14074 9405 c-6 -14 10 -46 159 -319 36 -66 63 -125 60 -132 -4 -12
-115 -74 -132 -74 -5 0 -14 30 -21 67 -15 87 -57 195 -94 240 -112 136 -316
66 -316 -109 0 -129 117 -228 232 -197 45 12 108 66 108 93 0 9 4 16 10 16 11
0 30 -65 30 -107 0 -34 -4 -37 -122 -102 -63 -34 -79 -37 -108 -19 -10 7 -22
9 -26 6 -7 -8 89 -191 103 -195 5 -2 13 11 18 29 7 22 22 38 50 53 22 12 104
56 183 98 78 42 147 77 152 77 5 0 19 -18 30 -40 22 -42 50 -54 50 -20 0 23
-64 154 -113 232 -19 29 -46 80 -61 113 -50 112 -160 305 -173 305 -8 0 -16
-7 -19 -15z m-56 -251 c50 -35 14 -122 -69 -164 -76 -39 -169 -22 -169 32 0
92 165 184 238 132z"/>
<path d="M5656 9038 c-174 -362 -166 -342 -141 -352 11 -4 24 8 43 42 68 118
146 156 230 113 48 -25 71 -54 79 -105 4 -28 -1 -50 -27 -102 -17 -36 -29 -68
-26 -71 3 -3 32 6 63 20 32 13 69 28 83 32 121 35 173 115 139 214 -13 38 -32
36 -39 -5 -3 -16 -10 -37 -15 -46 -11 -19 -95 -59 -107 -52 -4 3 -5 33 -2 67
6 74 -13 119 -65 154 -49 33 -105 31 -164 -7 -26 -16 -50 -30 -52 -30 -2 0 26
61 62 135 36 74 63 142 59 150 -15 41 -39 10 -120 -157z"/>
<path d="M8807 9172 c-3 -4 21 -140 54 -302 32 -162 59 -302 59 -311 0 -15
-11 -17 -102 -14 -57 2 -116 8 -132 15 -32 12 -86 -2 -86 -22 0 -6 -14 -8 -35
-4 -39 8 -38 10 -35 -76 2 -51 -1 -58 -25 -74 -23 -15 -26 -23 -21 -52 6 -41
31 -82 49 -82 24 0 56 38 50 60 -4 14 3 28 22 46 24 22 26 30 23 82 -3 55 -2
57 22 58 14 0 37 8 50 17 28 19 62 22 90 7 11 -6 61 -12 111 -13 92 -3 93 -3
103 -32 18 -49 65 -115 82 -115 26 0 162 -50 200 -73 20 -12 52 -37 72 -55 37
-33 44 -36 112 -46 156 -24 177 -36 286 -161 79 -91 98 -95 166 -28 48 47 50
48 111 47 70 -1 117 -23 117 -56 0 -10 8 -33 17 -51 9 -18 22 -50 28 -71 10
-35 17 -41 58 -53 26 -8 53 -23 60 -33 8 -13 23 -20 45 -20 38 0 66 -12 102
-45 14 -12 36 -25 49 -28 32 -8 85 15 114 49 19 22 29 26 51 20 41 -10 53 -47
31 -95 -13 -30 -15 -46 -8 -68 8 -24 17 -29 62 -36 41 -7 57 -5 76 7 15 10 46
16 79 16 49 0 54 2 60 25 9 37 24 31 46 -19 12 -29 30 -51 49 -61 17 -8 35
-25 42 -36 46 -87 -28 142 -187 575 -24 66 -44 123 -44 128 0 4 108 8 240 8
l240 0 5 23 c7 29 114 534 160 750 19 93 35 177 35 188 0 19 -17 19 -649 19
l-650 0 -15 -22 c-24 -35 -19 -92 16 -176 33 -77 41 -144 25 -189 -12 -32 16
-20 32 13 19 42 13 76 -34 174 -25 52 -45 100 -45 107 0 33 22 14 70 -60 100
-155 104 -193 27 -274 -29 -31 -27 -40 7 -34 6 1 20 0 33 -3 20 -6 21 -9 12
-33 -6 -15 -18 -35 -27 -45 -34 -35 -38 -45 -55 -153 -27 -172 -37 -264 -42
-386 -2 -63 -4 -117 -4 -121 -1 -13 -39 -28 -55 -22 -22 8 -29 40 -27 114 3
83 -14 252 -40 405 -18 106 -24 125 -55 165 -41 52 -41 74 1 76 50 3 51 4 24
28 -15 13 -32 32 -38 44 -15 29 -14 104 2 127 13 16 15 14 21 -24 5 -30 17
-52 47 -81 23 -22 46 -40 51 -40 5 0 -12 30 -36 66 -25 36 -48 81 -52 99 -7
42 13 106 35 112 10 2 24 25 33 51 8 26 18 55 22 65 8 16 -29 17 -687 17 -383
0 -698 -3 -700 -8z"/>
<path d="M5980 9056 c0 -7 -11 -35 -26 -61 -20 -38 -22 -50 -12 -56 19 -12 24
-11 44 8 14 15 44 73 44 87 0 8 -31 36 -41 36 -5 0 -9 -6 -9 -14z"/>
<path d="M10150 9018 c0 -13 12 -50 26 -83 14 -33 34 -85 43 -115 15 -46 19
-51 25 -33 9 29 -9 93 -45 161 -16 30 -29 63 -29 73 0 11 -4 19 -10 19 -5 0
-10 -10 -10 -22z"/>
<path d="M8080 8510 c0 -5 6 -10 14 -10 8 0 27 -11 43 -25 79 -69 133 -123
133 -132 0 -6 -12 -26 -27 -46 -16 -20 -36 -48 -47 -63 -10 -14 -31 -30 -47
-36 -18 -6 -32 -21 -39 -41 -6 -18 -28 -44 -50 -59 -43 -30 -49 -51 -26 -96
15 -30 13 -37 -27 -103 l-28 -47 23 -46 c18 -39 20 -50 10 -66 -7 -11 -12 -25
-12 -32 0 -6 -9 -21 -19 -32 -19 -21 -51 -128 -51 -170 0 -27 18 -46 42 -46
22 0 80 -29 134 -65 20 -14 45 -25 54 -25 10 0 23 -7 30 -15 19 -23 30 -18 30
15 0 25 -8 35 -47 60 -25 16 -62 33 -80 36 -46 9 -56 32 -38 84 8 24 15 53 15
65 0 13 11 37 25 53 14 17 25 36 25 44 0 8 5 19 11 25 8 8 5 22 -10 51 -27 53
-26 58 10 112 20 29 28 52 24 65 -3 11 -9 36 -12 57 -5 34 -3 38 35 61 23 15
42 36 46 51 3 14 20 32 36 41 34 17 110 113 110 138 0 41 -220 207 -274 207
-9 0 -16 -4 -16 -10z"/>
<path d="M12314 7468 c0 -24 -8 -66 -17 -93 -22 -67 -22 -309 -1 -342 8 -13
18 -23 22 -23 4 0 7 73 7 162 1 127 5 178 20 232 19 70 15 98 -16 104 -10 2
-14 -9 -15 -40z"/>
<path d="M11750 7441 c0 -5 5 -13 10 -16 6 -3 10 -2 10 4 0 5 -4 13 -10 16 -5
3 -10 2 -10 -4z"/>
<path d="M8320 7412 c0 -42 22 -61 100 -91 45 -18 104 -36 132 -41 29 -6 52
-11 52 -13 1 -1 16 -21 34 -44 17 -23 32 -46 32 -52 0 -17 19 -22 39 -10 16
11 24 8 55 -19 20 -17 59 -38 87 -46 29 -9 71 -27 95 -41 50 -29 67 -31 85 -9
18 21 -3 36 -88 65 -35 11 -75 32 -88 46 -18 21 -29 25 -53 20 -27 -5 -33 -1
-66 47 -35 50 -41 55 -103 70 -82 21 -177 59 -225 91 -42 28 -88 42 -88 27z"/>
<path d="M6566 7241 c-124 -82 -69 -274 79 -274 84 0 147 63 147 147 0 86 -62
146 -148 146 -31 0 -59 -7 -78 -19z m127 -47 c41 -7 47 -23 17 -42 -15 -9 -20
-23 -20 -57 0 -43 1 -45 25 -39 32 8 32 -6 0 -39 -69 -68 -187 -11 -170 83 4
19 6 45 6 57 -1 31 37 55 74 49 17 -3 47 -9 68 -12z"/>
<path d="M6602 7148 c-15 -15 -16 -85 -1 -93 16 -10 22 0 26 49 5 46 -6 63
-25 44z"/>
<path d="M6660 7114 c0 -21 -3 -50 -6 -64 -5 -17 -3 -22 4 -15 12 12 19 101 9
111 -4 4 -7 -10 -7 -32z"/>
<path d="M14092 7240 c-96 -58 -95 -198 1 -255 36 -22 103 -23 144 -2 103 54
105 209 3 262 -41 21 -109 19 -148 -5z m133 -48 l40 -7 -22 -22 c-14 -14 -22
-37 -24 -65 -3 -39 -2 -43 19 -40 25 4 27 -1 11 -30 -14 -26 -70 -49 -100 -40
-63 18 -99 75 -80 125 6 15 8 34 4 43 -10 27 35 56 77 48 19 -3 53 -9 75 -12z"/>
<path d="M14120 7141 c-20 -38 -6 -102 19 -87 13 9 15 106 1 106 -5 0 -14 -9
-20 -19z"/>
<path d="M14180 7106 c0 -24 -3 -53 -6 -63 -5 -13 -4 -15 4 -8 16 15 28 115
13 115 -6 0 -11 -18 -11 -44z"/>
<path d="M9112 7067 c-12 -13 -30 -47 -41 -77 -10 -30 -76 -214 -145 -409 -69
-194 -123 -357 -120 -362 3 -5 42 -40 88 -78 126 -105 348 -324 450 -442 348
-405 524 -806 554 -1264 l7 -110 103 -3 102 -3 0 1138 0 1137 -31 32 c-56 58
-38 149 36 180 75 31 158 7 190 -55 26 -52 14 -98 -37 -141 -18 -14 -18 -68
-16 -1150 l3 -1135 100 0 100 0 6 116 c24 439 186 834 503 1229 86 107 339
362 478 483 65 56 118 107 118 114 0 7 -25 81 -55 164 -30 83 -55 156 -55 162
0 19 85 0 164 -37 71 -34 81 -36 110 -25 17 7 45 24 61 39 17 15 40 33 52 39
26 13 21 41 -8 41 -10 0 -36 -15 -56 -33 -79 -69 -81 -70 -159 -32 -106 51
-147 61 -192 46 -27 -9 -44 -10 -65 -2 -44 17 -72 13 -97 -14 -28 -30 -42 -31
-81 -8 -20 12 -31 28 -35 53 -7 39 -30 70 -52 70 -8 0 -42 -17 -76 -38 -34
-21 -69 -41 -79 -45 -21 -8 -87 17 -87 32 0 6 -15 11 -34 11 -23 0 -45 9 -65
26 -23 19 -49 28 -97 34 -37 5 -71 13 -78 20 -6 6 -11 36 -11 66 0 49 -4 59
-28 80 -24 21 -38 24 -101 24 -60 0 -82 5 -118 25 l-45 25 -54 -25 c-30 -14
-59 -25 -64 -25 -6 0 -16 -9 -23 -20 -12 -20 -12 -20 -62 0 -62 24 -142 26
-164 4 -9 -8 -16 -26 -16 -38 0 -13 -7 -29 -15 -36 -16 -13 -21 -10 -69 32
-14 13 -36 18 -80 17 -167 0 -178 3 -190 61 -11 50 -20 56 -71 42 -65 -17
-103 -15 -135 8 -37 26 -157 80 -179 80 -10 0 -27 -10 -39 -23z"/>
<path d="M12350 6985 c0 -3 6 -16 14 -28 8 -12 22 -44 31 -70 15 -44 15 -53 1
-95 -9 -25 -16 -64 -16 -87 0 -28 -7 -48 -22 -65 -21 -22 -21 -23 -3 -36 10
-8 25 -14 32 -14 19 0 36 40 35 81 -1 21 5 54 14 75 25 61 0 165 -54 227 -14
16 -32 23 -32 12z"/>
<path d="M12192 6629 c-48 -22 -68 -26 -82 -19 -33 18 -68 11 -89 -16 -17 -21
-26 -25 -48 -20 -62 16 -83 18 -83 9 0 -18 25 -33 56 -33 18 0 36 -4 39 -10
11 -18 53 -11 60 9 8 27 36 34 95 26 30 -4 50 -3 55 4 3 6 15 11 25 11 10 0
35 10 55 21 28 17 33 24 24 35 -16 20 -35 17 -107 -17z"/>
<path d="M6510 5516 c0 -20 61 -161 124 -286 225 -444 520 -824 896 -1154 847
-743 1994 -1065 3107 -870 693 121 1312 419 1853 894 113 99 119 104 260 255
233 248 459 572 613 880 42 86 127 278 127 289 0 4 -12 6 -26 6 -22 0 -30 -11
-70 -97 -225 -487 -441 -801 -794 -1153 -556 -555 -1273 -913 -2075 -1037
-170 -26 -199 -27 -525 -28 -310 0 -361 2 -500 23 -325 48 -585 117 -860 225
-915 361 -1656 1080 -2049 1990 -28 65 -37 77 -57 77 -14 0 -24 -6 -24 -14z"/>
<path d="M6284 4616 c-3 -7 16 -46 41 -85 66 -103 44 -144 -27 -51 -28 37 -41
46 -70 48 -28 2 -40 -2 -52 -20 -24 -33 -20 -68 14 -118 45 -67 37 -110 -20
-110 -35 0 -64 32 -55 59 10 32 -49 123 -66 103 -3 -4 -12 -47 -19 -96 -13
-83 -12 -91 6 -125 18 -34 67 -71 79 -60 3 3 -1 19 -10 35 -16 31 -20 74 -7
74 4 0 22 -15 40 -34 39 -42 72 -51 117 -32 52 22 55 54 11 125 -41 67 -45 97
-15 106 24 8 50 -12 81 -64 29 -48 39 -53 65 -36 32 21 40 19 65 -20 13 -19
28 -35 35 -35 25 0 24 22 -2 61 -23 36 -25 45 -16 72 26 73 83 90 122 36 14
-21 25 -27 32 -20 12 12 -43 103 -76 126 -48 34 -113 8 -132 -52 -3 -13 -9
-23 -13 -23 -4 0 -28 34 -55 75 -47 75 -63 88 -73 61z"/>
<path d="M13669 4537 c-8 -7 -89 -119 -182 -248 -92 -129 -193 -261 -225 -295
-31 -33 -109 -116 -172 -185 -63 -68 -128 -135 -145 -149 -110 -90 -235 -206
-235 -217 0 -25 32 -13 82 32 28 25 55 45 62 45 12 0 96 -94 96 -108 0 -5 -9
-17 -20 -27 -32 -29 -43 -87 -26 -129 8 -19 23 -39 34 -45 54 -29 135 1 172
61 29 47 25 88 -10 133 -16 21 -30 41 -30 45 0 3 11 17 25 30 35 33 17 49 -29
25 l-34 -19 -46 50 c-25 27 -45 54 -46 59 0 6 15 24 33 40 63 58 60 58 98 22
131 -121 125 -117 181 -117 36 0 63 7 82 20 37 24 76 86 76 123 0 17 5 27 15
27 20 0 47 -43 39 -64 -14 -35 25 -14 72 40 61 71 63 75 26 72 -25 -2 -46 14
-141 102 -61 58 -111 110 -111 117 0 6 18 32 39 57 22 25 45 54 53 64 23 32
62 52 101 52 31 0 46 -7 73 -34 44 -44 44 -79 0 -145 -34 -50 -33 -71 1 -52
10 5 41 12 68 16 82 11 133 40 146 84 20 68 -7 126 -29 61 -11 -30 -44 -50
-84 -50 -17 0 -19 4 -12 28 5 15 8 46 8 69 1 76 -69 119 -149 93 -20 -7 -38
-10 -40 -8 -5 5 104 152 115 156 17 6 130 -80 130 -99 0 -9 -11 -31 -25 -47
-13 -16 -22 -32 -18 -36 15 -15 43 -4 64 27 12 17 24 34 25 36 2 2 21 -10 44
-25 25 -18 43 -40 47 -56 3 -16 9 -28 12 -28 12 0 102 130 97 139 -3 5 -16 6
-30 4 -17 -4 -41 7 -83 36 -32 23 -88 62 -125 88 -38 25 -68 50 -68 55 0 6 8
23 17 39 20 34 6 61 -18 36z m-357 -715 c58 -59 68 -74 68 -104 0 -49 -40 -88
-90 -88 -33 0 -48 9 -111 69 l-74 68 55 61 c30 33 61 61 69 61 8 1 45 -30 83
-67z m-283 -491 c55 -69 30 -101 -28 -36 -32 37 -41 75 -17 75 8 0 28 -18 45
-39z"/>
<path d="M9945 4220 c-25 -27 -7 -70 29 -70 23 0 24 3 19 35 -5 31 -3 35 16
35 11 0 21 5 21 10 0 19 -66 11 -85 -10z"/>
<path d="M8090 4223 c-28 -10 -50 -36 -50 -59 0 -13 -5 -26 -12 -30 -8 -5 -6
-11 7 -20 15 -11 17 -25 13 -104 l-4 -90 31 0 31 0 -4 94 -4 94 63 7 c84 9
123 4 127 -16 3 -14 -4 -16 -42 -12 -65 8 -96 -14 -96 -67 0 -50 31 -74 90
-68 33 3 40 0 40 -14 0 -14 8 -18 33 -18 l33 0 -4 95 -4 95 28 1 c16 1 47 2
68 3 52 1 60 -22 9 -26 -34 -3 -38 -6 -38 -30 0 -15 -6 -33 -12 -39 -22 -22
-14 -48 20 -70 39 -24 87 -20 131 12 l29 22 -6 -32 c-6 -30 -6 -31 31 -31 l37
0 -3 96 -4 96 29 -4 28 -3 0 -92 0 -93 30 0 30 0 -3 94 c-4 88 -3 94 17 101
57 18 -8 25 -223 25 l-232 0 -21 28 c-12 16 -37 36 -56 45 -34 16 -106 21
-137 10z m124 -39 c14 -15 26 -31 26 -36 0 -5 -33 -8 -72 -6 -61 3 -73 6 -76
21 -10 51 76 66 122 21z m356 -128 c0 -47 -4 -57 -26 -75 -15 -12 -41 -21 -58
-21 -56 0 -78 45 -28 56 52 11 58 17 27 23 -47 10 -38 35 13 39 28 2 42 8 42
18 0 8 7 14 15 14 11 0 15 -13 15 -54z m-292 2 c7 -7 12 -24 12 -38 0 -30 -16
-50 -41 -50 -23 0 -49 27 -49 50 0 39 52 64 78 38z"/>
<path d="M9252 4203 c2 -10 10 -18 18 -18 22 0 18 29 -3 33 -14 3 -18 -1 -15
-15z"/>
<path d="M8840 4153 c-25 -9 -50 -35 -50 -51 0 -9 7 -24 17 -34 15 -17 15 -20
-6 -42 -17 -19 -20 -28 -12 -48 5 -14 17 -28 26 -32 32 -12 83 -6 108 14 34
27 41 25 34 -10 -6 -29 -5 -30 31 -30 l37 0 -3 94 -4 93 44 5 c23 3 72 5 108
4 63 -1 65 -2 68 -28 l3 -27 -68 6 c-58 5 -72 3 -92 -14 -33 -27 -33 -79 -2
-105 55 -44 140 -1 127 65 -5 23 -3 28 12 25 14 -3 17 -14 17 -61 l-1 -57 36
0 35 0 -3 94 c-4 90 -3 94 18 101 54 17 -9 25 -180 23 l-184 -3 3 -62 c3 -68
-14 -96 -64 -109 -50 -12 -75 41 -33 70 l21 15 -23 19 c-17 13 -21 24 -16 40
9 28 24 28 28 0 4 -30 42 -32 46 -2 4 31 -42 60 -78 47z m319 -125 c10 -28 2
-68 -15 -75 -32 -12 -55 37 -38 81 9 23 43 20 53 -6z"/>
<path d="M10110 4153 c-25 -9 -50 -35 -50 -51 0 -9 8 -24 17 -35 16 -17 16
-20 2 -30 -9 -7 -19 -22 -23 -34 -17 -54 94 -87 142 -43 29 27 36 25 29 -10
-6 -29 -5 -30 31 -30 l37 0 -3 94 -4 94 35 4 c19 2 68 4 108 3 l74 0 0 -30 c0
-22 -4 -29 -15 -26 -8 3 -38 7 -65 9 -65 5 -98 -19 -98 -68 0 -64 73 -91 128
-48 23 18 26 26 22 55 -5 29 -3 34 11 31 14 -3 17 -15 17 -61 l-1 -57 36 0 35
0 -3 95 -4 95 26 0 c24 0 26 -3 26 -48 0 -38 5 -53 23 -70 13 -12 29 -22 36
-22 27 0 3 -25 -32 -33 -40 -10 -50 -27 -17 -27 23 0 95 34 105 50 3 5 13 10
21 10 10 0 13 -7 8 -25 -6 -23 -3 -25 28 -25 l34 0 -4 94 c-4 90 -3 94 18 101
60 19 -19 25 -306 23 l-309 -3 3 -62 c4 -68 -12 -96 -63 -109 -50 -12 -75 41
-33 70 l21 15 -23 19 c-17 13 -21 24 -16 40 9 28 24 28 28 0 4 -30 42 -32 46
-2 4 31 -42 60 -78 47z m653 -42 c15 -2 7 -94 -10 -113 -21 -24 -60 -23 -73 1
-14 28 -13 108 3 114 10 4 56 3 80 -2z m-333 -113 c0 -25 -5 -41 -15 -44 -39
-15 -62 58 -29 91 24 23 44 2 44 -47z"/>
<path d="M10920 4153 c-25 -9 -50 -35 -50 -51 0 -9 7 -23 16 -33 15 -17 15
-20 -5 -45 -17 -21 -19 -30 -9 -48 6 -11 16 -24 22 -28 22 -15 83 -8 109 12
34 27 41 25 34 -10 -6 -29 -5 -30 31 -30 l37 0 -3 95 -4 95 27 0 27 0 -4 -95
-3 -95 35 0 35 0 -3 94 -4 94 65 7 c35 4 82 4 103 1 21 -3 45 -5 52 -6 9 0 12
-10 10 -27 -2 -19 -8 -27 -18 -24 -8 2 -40 6 -71 9 -48 4 -60 1 -78 -17 -46
-46 -11 -121 55 -121 45 0 77 34 72 78 -4 35 11 43 32 17 8 -10 11 -31 7 -60
l-7 -45 33 0 32 0 -3 94 -4 94 49 4 c67 6 75 2 71 -41 -2 -27 -8 -37 -23 -39
-53 -10 -73 -68 -33 -96 44 -31 104 -9 110 42 2 17 10 28 22 30 17 4 18 -1 14
-42 l-6 -46 37 0 36 0 -3 94 c-4 90 -3 94 18 101 61 19 -26 25 -370 22 l-374
-2 3 -62 c3 -68 -14 -96 -64 -109 -50 -12 -75 41 -33 70 l21 15 -23 19 c-17
13 -21 24 -16 40 9 28 24 28 28 0 4 -30 42 -32 46 -2 4 31 -42 60 -78 47z
m780 -84 c0 -33 -3 -40 -17 -37 -22 4 -31 67 -12 79 21 12 29 1 29 -42z m-340
-68 c0 -27 -25 -55 -43 -48 -26 10 -32 53 -12 84 l18 27 18 -23 c11 -13 19
-31 19 -40z m250 -25 c0 -14 -5 -28 -10 -31 -13 -8 -24 20 -16 40 9 24 26 17
26 -9z"/>
<path d="M11907 4143 c-4 -3 -7 -60 -7 -125 l0 -118 25 0 25 0 0 125 c0 115
-2 125 -18 125 -10 0 -22 -3 -25 -7z"/>
<path d="M9507 4134 c-12 -12 4 -24 32 -24 32 0 61 -27 61 -57 0 -27 -31 -53
-63 -53 -34 0 -34 -4 6 -40 39 -36 72 -47 93 -29 13 11 11 14 -16 26 l-32 13
36 34 c42 39 43 44 15 80 -11 14 -19 27 -17 27 11 5 66 6 81 2 14 -4 17 -13
15 -46 -2 -35 -7 -43 -25 -45 -13 -2 -23 -7 -23 -12 0 -5 10 -10 23 -12 19 -3
22 -8 20 -41 -2 -36 -1 -37 30 -37 l33 0 -4 95 c-4 76 -2 95 9 95 8 0 46 3 84
6 58 5 73 3 84 -10 15 -18 13 -19 -46 -16 -33 1 -48 -4 -68 -24 -32 -32 -32
-60 1 -92 21 -22 32 -25 70 -22 37 3 44 0 44 -14 0 -14 8 -18 33 -18 l32 0 -3
94 c-4 88 -3 94 17 101 12 3 19 11 16 16 -7 10 -528 13 -538 3z m445 -89 c8
-19 8 -31 0 -50 -20 -44 -82 -25 -82 25 0 50 62 69 82 25z"/>
<path d="M6260 4019 c-26 -47 25 -100 69 -72 20 13 26 60 10 79 -18 22 -66 18
-79 -7z"/>
<path d="M6796 3841 c-4 -6 1 -14 11 -17 47 -14 68 -31 71 -58 6 -53 -50 -84
-98 -54 -26 17 -35 4 -16 -24 50 -71 -43 -159 -104 -98 -31 31 -35 65 -11 110
25 48 25 50 6 50 -26 0 -55 -60 -55 -116 0 -122 138 -201 219 -125 26 24 31
36 31 75 0 44 1 46 29 46 17 0 42 11 60 26 26 22 31 33 31 70 0 36 -6 51 -33
80 -28 31 -42 37 -84 41 -31 3 -53 1 -57 -6z"/>
<path d="M7024 3686 c-3 -8 -3 -19 0 -25 6 -10 -68 -91 -83 -91 -5 0 -14 7
-21 15 -7 8 -19 15 -26 15 -19 0 -18 -24 1 -40 24 -20 18 -34 -38 -87 -45 -43
-58 -50 -81 -46 -25 5 -27 4 -18 -13 6 -11 33 -41 60 -68 50 -48 75 -54 65
-16 -4 16 19 45 103 130 59 61 115 110 124 110 9 0 25 -9 35 -20 21 -24 31
-25 38 -6 4 9 -20 40 -64 83 -79 76 -87 81 -95 59z"/>
<path d="M12590 3364 c-47 -36 -86 -72 -88 -80 -2 -8 -9 -14 -16 -14 -7 0
-111 -61 -230 -135 -120 -74 -220 -135 -223 -135 -8 0 -398 -182 -421 -196
-23 -15 -22 -34 3 -34 7 0 55 20 107 44 121 56 138 61 149 45 14 -22 11 -29
-14 -29 -13 0 -46 -11 -73 -25 -149 -74 -110 -280 52 -277 47 0 77 13 117 50
32 31 58 19 36 -16 -23 -36 -2 -36 76 1 73 35 95 57 56 57 -10 0 -23 6 -28 13
-15 20 -93 197 -93 211 0 7 16 21 35 32 20 10 35 26 35 36 0 24 -21 23 -53 -2
-14 -11 -30 -20 -35 -20 -13 0 -24 28 -14 34 60 37 207 106 226 106 30 0 56
-24 56 -52 0 -20 -48 -73 -85 -94 -20 -11 -20 -12 4 -38 40 -43 105 -69 160
-64 62 6 105 37 135 96 l23 46 17 -26 c11 -17 15 -35 10 -52 -4 -16 -2 -26 4
-26 16 0 142 81 142 90 0 5 -12 10 -26 12 -22 2 -40 25 -105 133 -43 72 -79
135 -79 141 0 7 11 19 25 28 14 9 25 23 25 30 0 12 67 33 75 24 1 -2 43 -58
94 -126 76 -103 90 -127 85 -149 -9 -32 -1 -30 76 26 57 42 81 79 43 67 -10
-3 -23 -2 -29 2 -6 4 -52 63 -104 131 l-93 124 26 23 c28 24 36 54 15 54 -7 0
-51 -30 -98 -66z m-182 -309 c28 -47 52 -92 52 -100 0 -35 -30 -85 -61 -100
-38 -20 -83 -14 -116 17 -30 28 -29 37 11 76 19 19 38 46 41 62 8 36 -9 70
-35 70 -32 0 -31 17 2 38 18 11 38 21 43 21 6 1 34 -37 63 -84z m-474 -330
c19 -42 33 -82 30 -89 -13 -34 -86 -49 -129 -26 -24 13 -55 65 -55 92 0 23 39
78 63 88 47 19 55 12 91 -65z"/>
<path d="M7012 3254 c-47 -33 -9 -107 46 -88 37 13 43 65 10 88 -28 20 -28 20
-56 0z"/>
<path d="M7533 3254 c-4 -10 1 -20 13 -27 10 -6 36 -27 57 -47 29 -30 37 -45
37 -73 0 -49 -18 -86 -51 -103 -42 -21 -70 -17 -123 17 -27 16 -51 28 -54 25
-3 -3 2 -25 11 -48 9 -24 19 -59 22 -79 15 -82 80 -132 150 -115 31 8 29 30
-4 34 -25 4 -49 37 -53 72 -3 24 -2 25 59 21 58 -3 65 -1 93 27 24 24 30 39
30 72 0 23 -5 50 -11 61 -21 40 -3 37 74 -10 43 -27 81 -51 84 -55 3 -3 -13
-37 -36 -76 -46 -76 -60 -82 -106 -39 -13 12 -25 15 -34 10 -20 -13 -6 -38 34
-62 19 -12 35 -23 35 -26 0 -2 -14 -24 -30 -49 -20 -28 -38 -44 -51 -44 -33 0
-17 -22 47 -61 74 -47 88 -49 79 -10 -5 23 7 49 65 147 91 152 92 153 129 131
26 -15 30 -15 41 -2 7 9 11 17 9 19 -4 4 -275 171 -426 262 -39 24 -74 44 -78
44 -3 0 -8 -7 -12 -16z"/>
<path d="M7946 3184 c-9 -8 -16 -22 -16 -29 0 -14 26 -45 38 -45 15 0 52 32
52 44 0 15 -32 46 -48 46 -6 0 -18 -7 -26 -16z"/>
<path d="M10994 2794 c-79 -39 -112 -116 -69 -164 10 -11 16 -22 13 -25 -12
-12 -420 -85 -478 -85 -105 0 -137 -18 -91 -51 17 -12 20 -28 23 -111 3 -90 1
-98 -21 -122 -46 -49 -128 -58 -185 -21 -37 24 -34 52 7 60 74 16 147 88 147
148 0 38 -46 84 -93 92 -58 11 -107 -3 -145 -41 -29 -29 -34 -39 -28 -67 7
-36 43 -70 90 -84 l31 -10 -30 -12 c-16 -7 -46 -11 -67 -10 -47 4 -53 -2 -39
-44 13 -39 64 -91 104 -106 62 -24 169 -2 206 42 7 10 17 17 22 17 15 0 10
-53 -8 -72 -9 -10 -14 -20 -11 -23 9 -9 168 7 168 16 0 5 -9 18 -20 29 -14 14
-20 33 -20 68 0 27 -3 97 -7 155 -6 105 -6 107 16 107 12 0 114 18 226 41 113
22 210 37 215 34 20 -12 9 -44 -27 -80 l-37 -37 -37 21 c-62 35 -132 21 -181
-37 -91 -109 18 -298 151 -262 45 12 91 45 91 66 0 17 -8 17 -40 -1 -37 -21
-56 -18 -91 13 -54 48 -56 154 -4 188 21 14 30 14 56 4 16 -7 37 -26 45 -41
20 -39 30 -36 38 10 6 41 28 66 49 58 8 -3 21 -46 32 -106 16 -86 16 -105 5
-126 -7 -14 -11 -27 -9 -29 5 -5 147 22 161 30 6 4 0 15 -15 28 -21 18 -29 42
-52 164 -14 79 -24 150 -21 158 3 8 16 14 29 14 13 0 28 5 35 12 6 6 25 13 41
14 28 4 30 1 50 -64 75 -252 72 -234 56 -259 -8 -12 -11 -24 -7 -27 9 -5 157
35 168 46 4 4 -5 12 -19 17 -22 9 -30 25 -56 108 -35 116 -61 205 -61 210 0 2
16 11 36 19 46 19 39 40 -12 37 -34 -2 -42 2 -59 30 -43 68 -189 101 -271 61z
m132 -40 c23 -16 54 -62 54 -81 0 -12 -59 -40 -93 -46 -31 -5 -62 19 -78 61
-13 33 -12 39 11 62 24 24 72 26 106 4z m-892 -316 c11 -45 -5 -91 -29 -82
-21 8 -36 70 -24 101 13 36 42 26 53 -19z"/>
<path d="M8525 2738 c-59 -32 -61 -85 -5 -140 22 -22 40 -42 40 -44 0 -10 -44
-2 -89 15 -28 10 -52 16 -55 13 -21 -20 6 -126 42 -165 45 -50 150 -72 218
-47 15 6 29 9 31 6 11 -10 -10 -47 -34 -60 -17 -8 -22 -16 -14 -20 21 -14 154
-56 159 -51 3 3 0 16 -7 29 -11 20 -7 42 36 172 46 141 49 149 73 147 66 -5
103 -12 112 -21 5 -5 -4 -66 -23 -158 -26 -118 -38 -153 -56 -170 -13 -12 -20
-24 -16 -27 16 -9 156 -38 161 -32 3 3 -1 16 -8 30 -11 21 -10 43 14 157 37
180 35 178 86 171 37 -5 42 -4 39 12 -3 14 -27 23 -109 42 -58 13 -112 22
-120 21 -8 -1 -59 13 -113 31 -102 34 -131 33 -107 -6 10 -15 7 -35 -14 -104
-29 -94 -50 -124 -95 -134 -64 -14 -148 33 -166 93 -6 21 -4 22 60 22 36 0 80
6 99 14 67 28 96 103 60 154 -35 51 -147 79 -199 50z m118 -67 c-2 -45 -22
-81 -45 -81 -14 0 -18 8 -18 38 0 44 25 85 48 80 12 -3 17 -13 15 -37z"/>
<path d="M7947 2632 c-21 -23 -22 -46 -1 -66 24 -24 61 -20 80 9 15 23 15 27
0 50 -20 30 -56 33 -79 7z"/>
<path d="M9247 2546 c-3 -8 3 -20 13 -28 16 -11 17 -20 10 -68 -22 -144 -5
-211 61 -246 43 -22 119 -21 158 2 17 10 33 16 36 13 12 -12 -8 -69 -26 -74
-11 -4 -19 -10 -19 -15 0 -9 28 -16 113 -25 48 -5 57 -4 57 9 0 9 -4 16 -10
16 -5 0 -10 19 -10 43 0 46 28 276 36 288 2 4 34 6 71 5 l68 -1 0 -163 c0
-148 -2 -165 -19 -177 -32 -24 -8 -35 75 -35 79 0 92 6 64 30 -16 14 -21 145
-8 273 l6 67 33 0 c34 0 53 15 38 30 -7 7 -140 12 -234 9 -8 0 -121 13 -250
30 -276 36 -256 35 -263 17z m305 -65 c10 -9 -11 -179 -24 -204 -27 -52 -119
-52 -153 0 -17 25 -16 86 2 192 l6 33 81 -7 c44 -3 84 -10 88 -14z"/>
</g>
</svg>
